<?xml version="1.0" encoding="utf-8"?>
<!-- Generator: Adobe Illustrator 16.0.4, SVG Export Plug-In . SVG Version: 6.00 Build 0)  -->
<!DOCTYPE svg PUBLIC "-//W3C//DTD SVG 1.1//EN" "http://www.w3.org/Graphics/SVG/1.1/DTD/svg11.dtd">
<svg version="1.1" id="Layer_1" xmlns="http://www.w3.org/2000/svg" xmlns:xlink="http://www.w3.org/1999/xlink" x="0px" y="0px"
	 width="216px" height="178.109px" viewBox="0 0 216 178.109" enable-background="new 0 0 216 178.109" xml:space="preserve">
<path fill="#0085BE" d="M37.59,20.215c0,0,2.083,25.555,11.754,28.817c0,0,13.976,4.832,17.7,11.258c0,0,3.447,6.469,3.076,11.369
	c0,0-0.007,0.409-0.563,0.651c0,0-4.417,1.55-5.951,4.338c0,0-0.383,1.396-4.171,2.419c0,0-5.788,1.076-5.627,2.643
	c0,0-0.166,0.94,0.652,1.197c0,0-0.412-1.061,1.209-1.318c0,0,2.199-0.589,5.434-1.375c0,0,4.896-1.504,8.954-0.164
	c0,0,2.924,2.144,8.648,0.94c0,0,6.044-1.309,8.229-2.9c0,0,0.837-0.794,2.582-1.982c0,0,3.95-2.468,6.026-3.948
	c0,0,0.969-0.772,2.944-1.415c0,0,2.168-0.766,2.838-1.073c0,0,1.118-0.664,4.013-0.977c0,0,21.013-4.32,23.188-5.045
	c0,0-2.308,0.021-6.971,0.707c0,0-13.331,2.617-15.779,2.801c0,0-1.603,0.344-2.86,0.26c0,0-1.529,0.056-2.844,0.118
	c0,0-0.546,0.056-1.206-0.502c0,0-1.278-1.129-2.288-1.489c0,0-0.727-0.456,0.061-1.058c0,0,0.571-0.381,0.431-1.355
	c0,0-0.909-0.515,1.178-3.089c0,0,2.767-3.067,3.182-4.739c0,0-0.006-0.955,1.146-2.125c0,0,0.629-0.757,1.351-1.708
	c0,0,0.968-1.231,2.732-2.559c0,0,1.489-1.191,2.551-2.617c0,0,1.002-1.278,2.88-2.45c0,0,7.441-5.53,11.076-8.758
	c0,0,9.924-7.812,11.208-9.419c0,0,0.074-0.288-1.545,0.651c0,0-15.536,9.633-18.795,11.199c0,0-16.921,8.845-19.526,10.011
	c0,0-6.587,3.231-6.77,4.54c0,0-1.391,6.317-2.999,7.8c0,0-2.037-2.899-3.3-4.625c0,0-0.295-0.443-0.121-0.886
	c0,0-0.428-0.921-2.354-2.751c0,0-6.125-5.328-11.866-7.446c0,0-2.332-0.568-2.817-1.569c0,0-0.28-0.36-1.602-0.797
	c0,0-1.249-0.497-1.828-1.073c0,0-0.75-0.589-1.519-0.81c0,0-0.545-0.4-0.395-1.43c0,0,0.185-1.309-1.235-2.729
	c0,0-1.735-1.501-2.657-3.015c0,0-1.731-3.092-2.839-3.297c0,0-0.668-0.375-1.783-1.764c0,0-2.632-2.878-3.805-3.892
	c0,0-2.74-2.767-3.941-6.008c0,0-1.229-3.594-1.94-2.595c0,0-0.969,0.769-1.205-1.191c0,0-0.02-2.41-0.502-1.089
	C39.029,12.906,37.577,15.191,37.59,20.215z"/>
<g>
	<path d="M49.248,147.61l1.407-0.551c0.316,0.811,1.078,1.268,2.017,1.268c0.844,0,1.642-0.328,1.642-1.104
		c0-0.621-0.505-0.902-1.149-1.09l-1.407-0.342c-1.114-0.281-2.005-0.785-2.005-2.264c0-1.57,1.301-2.484,2.919-2.484
		c1.396,0,2.663,0.562,3.038,1.781l-1.349,0.529c-0.328-0.705-0.938-0.998-1.747-0.998c-0.681,0-1.338,0.307-1.338,1.057
		c0,0.586,0.563,0.855,1.22,1.031l1.431,0.352c0.997,0.234,1.911,0.832,1.911,2.324c0,1.533-1.373,2.555-3.213,2.555
		C51.089,149.675,49.682,149.03,49.248,147.61z"/>
	<path d="M63.352,141.185h1.431l3.084,8.361h-1.63l-0.609-1.783h-3.189l-0.633,1.783h-1.56L63.352,141.185z M65.182,146.425
		l-1.137-3.352h-0.023l-1.149,3.352H65.182z"/>
	<path d="M72.827,141.185h1.56v6.988h4.069v1.373h-5.629V141.185z"/>
	<path d="M84.4,142.522h-2.404v-1.338h6.356v1.338h-2.403v7.023H84.4V142.522z"/>
	<path d="M93.003,141.185h1.595l1.315,5.852h0.021l1.537-5.852h1.326l1.523,5.887h0.025l1.336-5.887h1.572l-2.171,8.396h-1.442
		l-1.501-5.898h-0.023l-1.501,5.898h-1.453L93.003,141.185z"/>
	<path d="M109.912,141.185h1.431l3.086,8.361h-1.632l-0.609-1.783h-3.189l-0.632,1.783h-1.56L109.912,141.185z M111.743,146.425
		l-1.139-3.352h-0.023l-1.149,3.352H111.743z"/>
	<path d="M120.324,142.522h-2.403v-1.338h6.354v1.338h-2.403v7.023h-1.547V142.522z"/>
	<path d="M129.423,141.185h5.806v1.371h-4.245v2.043h3.765v1.369h-3.765v2.205h4.292v1.373h-5.853V141.185z"/>
	<path d="M140.738,141.185h3.308c1.571,0,2.838,0.914,2.838,2.627c0,0.996-0.527,2.027-1.653,2.426l2.075,3.309h-1.7l-1.96-3.131
		h-1.348v3.131h-1.56V141.185z M143.857,145.103c0.903,0,1.5-0.436,1.5-1.303c0-0.986-0.656-1.303-1.522-1.303h-1.537v2.605H143.857
		z"/>
	<path d="M152.276,147.798h1.535v1.748h-1.535V147.798z"/>
	<path d="M159.522,148.128v-3.449h-0.807v-1.137h0.807v-1.818h1.432v1.818h1.303v1.137h-1.303v3.107
		c0,0.445,0.234,0.574,0.563,0.574c0.292,0,0.457-0.01,0.739-0.059v1.221c-0.318,0.082-0.847,0.115-1.059,0.115
		C160.273,149.638,159.522,149.192,159.522,148.128z"/>
	<path d="M166.663,143.542h1.514l1.338,4.174h0.021l1.339-4.174h1.453l-2.109,6.027h-1.42L166.663,143.542z"/>
</g>
<g>
	<path d="M61.878,122.276l6.418-7.387c2.762,2.686,7.014,4.703,11.269,4.703c2.834,0,6.044-0.748,6.044-3.285
		c0-2.314-1.791-2.91-4.925-3.508c-0.223-0.074-0.448,0-6.941-1.566c-6.268-1.494-10.148-4.627-10.148-10.522
		c0-7.762,6.79-13.432,16.491-13.432c7.54,0,11.865,1.492,16.27,5.223l-7.015,6.792c-2.537-2.314-5.971-3.434-9.03-3.434
		c-3.283,0-5.225,0.971-5.225,3.133c0,2.09,2.836,2.465,5.524,2.986l6.79,1.417c7.013,1.492,10.82,5.599,10.82,11.194
		c0,9.555-9.777,13.73-18.061,13.73C73.073,128.321,67.103,127.128,61.878,122.276z"/>
	<path d="M104.416,117.353V74.219h12.39v40.671c0,1.715,0.521,2.984,3.058,2.984c1.194,0,2.165-0.15,3.582-0.299v9.33
		c-2.238,0.67-5.223,1.268-7.908,1.268C107.253,128.173,104.416,122.649,104.416,117.353z"/>
	<path d="M131.43,117.427V97.649v-9.027V77.577h12.312v11.045h8.284v9.027h-8.284v16.643c0,2.164,0.972,3.357,3.359,3.357
		c1.793,0,3.136-0.074,4.776-0.371v9.627c-2.835,0.82-6.268,1.268-8.656,1.268C137.251,128.173,131.43,125.562,131.43,117.427z"/>
</g>
</svg>
